<svg width="16" height="12" viewBox="0 0 16 12" fill="none" xmlns="http://www.w3.org/2000/svg">
<path d="M14 10.6719H15.3281V12H0.671875V10.6719H2V0.671875C2 0.484375 2.0625 0.328125 2.1875 0.203125C2.32292 0.0677083 2.48438 0 2.67188 0H9.32812C9.51562 0 9.67188 0.0677083 9.79688 0.203125C9.93229 0.328125 10 0.484375 10 0.671875V10.6719H12.6719V5.32812H11.3281V4H13.3281C13.5156 4 13.6719 4.06771 13.7969 4.20312C13.9323 4.32812 14 4.48438 14 4.67188V10.6719ZM3.32812 1.32812V10.6719H8.67188V1.32812H3.32812ZM4.67188 5.32812H7.32812V6.67188H4.67188V5.32812ZM4.67188 2.67188H7.32812V4H4.67188V2.67188Z" fill="#98A2B3"/>
</svg>
