<svg width="15" height="15" viewBox="0 0 15 15" fill="none" xmlns="http://www.w3.org/2000/svg">
<path d="M3.66668 2.00008V0.666748H5.00001V2.00008H9.00001V0.666748H10.3333V2.00008H13C13.3682 2.00008 13.6667 2.29856 13.6667 2.66675V6.00008H12.3333V3.33341H10.3333V4.66675H9.00001V3.33341H5.00001V4.66675H3.66668V3.33341H1.66668V12.6667H5.66668V14.0001H1.00001C0.631824 14.0001 0.333344 13.7016 0.333344 13.3334V2.66675C0.333344 2.29856 0.631824 2.00008 1.00001 2.00008H3.66668ZM10.3333 8.00008C8.86061 8.00008 7.66668 9.19401 7.66668 10.6667C7.66668 12.1395 8.86061 13.3334 10.3333 13.3334C11.8061 13.3334 13 12.1395 13 10.6667C13 9.19401 11.8061 8.00008 10.3333 8.00008ZM6.33334 10.6667C6.33334 8.45761 8.12421 6.66675 10.3333 6.66675C12.5425 6.66675 14.3333 8.45761 14.3333 10.6667C14.3333 12.8759 12.5425 14.6667 10.3333 14.6667C8.12421 14.6667 6.33334 12.8759 6.33334 10.6667ZM9.66668 8.66675V10.9429L11.1953 12.4715L12.1381 11.5287L11 10.3906V8.66675H9.66668Z" fill="#98A2B3"/>
</svg>
